<svg id="Layer_1" data-name="Layer 1" xmlns="http://www.w3.org/2000/svg" viewBox="0 0 289.09 100.84"><defs><style>.cls-1{fill:#f2f2f2;}.cls-2{fill:#ec008c;}</style></defs><title>logo</title><path class="cls-1" d="M147,83.5c-.75,0-3.22,0-4-.09-9.05-.5-11.27-1.73-15.16-7.11C124.48,71.55,120,64,116.54,58c-2.53-4.37-3.71-5.07-8.5-5.07h-3.71V71.63c0,7.82.76,8.87,8.65,10.06V83H87.73V81.69c7.73-1.27,8.58-2,8.58-10.06V29.11c0-7.83-.68-8.68-8.58-9.88V18h24.44c7.06,0,12.39,1.06,16.08,3.71a14.47,14.47,0,0,1,6.08,12.21c0,8.55-5.9,14-12.78,17,1.82,3.28,6.55,11.17,9.51,15.67,3.48,5.36,5.84,8.84,8.12,11.35,2.47,2.7,4.11,3.52,8.1,4.33ZM109.69,50.82c5,0,7.89-.23,10.62-2.29,3.78-2.76,5.06-6.75,5.06-12.72,0-11-6-15.8-14-15.8-3.41,0-5.14.36-5.9.86s-1.18,1.45-1.18,4.43V50.82Z"/><path class="cls-2" d="M140,100.84H111L147.61,0h29.32Z"/><path class="cls-1" d="M56.2,83V81.69c7.77-1.4,8-2.27,8.13-12.19l.3-43.95c-8.42,18.11-24.4,53-26.08,57.41H37.46c-1.23-3.39-12.55-30.74-23.38-56.22-1.32,36.74-1.27,43-1.25,46.94,0,5.38,1.58,7,9.2,8V83H0V81.69c6.92-.92,8.24-2.7,8.75-7.9.42-4,.74-9.68,2.73-47,.18-3.87-.31-6.59-9.24-7.57V18H18.52L41.2,69.24,65.67,18h16v1.27c-8.63,1.33-9.33,2.28-9.31,11.52l.24,38.75c.1,10.08.91,10.85,9.07,12.19V83Z"/><path class="cls-2" d="M279.33,83.16a6.36,6.36,0,0,1-6.44-6.73,6.42,6.42,0,0,1,6.44-6.73,6.52,6.52,0,0,1,6.58,6.73A6.45,6.45,0,0,1,279.33,83.16Z"/><path class="cls-1" d="M194.2,83V81.69c7.77-1.4,8-2.27,8.13-12.19l.3-43.95c-8.42,18.11-24.4,53-26.08,57.41h-1.09c-1.23-3.39-12.55-30.74-23.38-56.22-1.32,36.74-1.27,43-1.25,46.94,0,5.38,1.58,7,9.2,8V83H138V81.69c6.92-.92,8.24-2.7,8.75-7.9.42-4,.74-9.68,2.73-47,.18-3.87-.31-6.59-9.24-7.57V18h16.28L179.2,69.24,203.67,18h16v1.27c-8.63,1.33-9.33,2.28-9.31,11.52l.24,38.75c.1,10.08.91,10.85,9.07,12.19V83Z"/><path class="cls-1" d="M253,18c12.66,0,21.59,2.8,27.52,8.48,5.26,5,8.56,12.37,8.56,21.6,0,12.18-4.91,21.15-12.23,26.87s-15.64,8-25.49,8H225.73V81.69c7.92-1.45,8.58-2.21,8.58-10.15V29.45c0-8.09-.82-9.1-8.58-10.22V18ZM242.36,70c0,8.94,3.85,10.37,12.29,10.37,17.41,0,25.11-12.6,25.11-30.5,0-11.51-4-21.08-12.57-26-4.5-2.7-9.48-3.65-15.92-3.65-3.18,0-6.12.46-7.29,1.09-1.33.72-1.67,1.68-1.67,5.49Z"/></svg>