<svg viewBox="0 0 359.27 77.26" xmlns="http://www.w3.org/2000/svg"><path d="m90 2.6v.4a.9.9 0 0 1 -.85.88 13.86 13.86 0 0 0 -4.27.75 3.8 3.8 0 0 0 -2.29 2.47 20.5 20.5 0 0 0 -.59 5.74v52.16a20.5 20.5 0 0 0 .59 5.68 3.65 3.65 0 0 0 2.29 2.53 16.68 16.68 0 0 0 4.29.78.89.89 0 0 1 .83.88.87.87 0 0 1 -.92.87q-2.68-.15-6.47-.2c-3 0-6 0-9.06 0-3.35 0-6.49 0-9.43 0-2.46 0-4.52.09-6.2.2a.87.87 0 0 1 -.92-.88v-.07a.91.91 0 0 1 .87-.88 21.51 21.51 0 0 0 4.85-.78 3.91 3.91 0 0 0 2.61-2.53 18 18 0 0 0 .67-5.69v-56.91h.31l-25.87 67.33a1.19 1.19 0 0 1 -.82.67h-.49a1.23 1.23 0 0 1 -.82-.64l-26.48-63.17a1 1 0 0 0 -1.83.34v46a60 60 0 0 0 .77 8.89 6.34 6.34 0 0 0 2.79 4.42 15.94 15.94 0 0 0 6 1.74 5.12 5.12 0 0 1 1.43.87v.36a.9.9 0 0 1 -1 .9c-1.21-.1-2.69-.16-4.42-.18q-3.34-.06-6.25-.06c-1.65 0-3.34 0-5.06.06-1.27 0-2.38.08-3.34.16a.89.89 0 0 1 -1-.89h.08a.9.9 0 0 1 .74-.87 10.69 10.69 0 0 0 4.38-1.66 6.53 6.53 0 0 0 2.29-4.15 42.1 42.1 0 0 0 .59-8v-47.28a20.5 20.5 0 0 0 -.59-5.74 3.8 3.8 0 0 0 -2.34-2.52 14.1 14.1 0 0 0 -4.22-.75.9.9 0 0 1 -.85-.83v-.38a.87.87 0 0 1 .93-.88l3.34.15c1.73.11 3.37.11 5.01.11 3.06 0 6.06 0 9-.11 2.7-.06 5.11-.12 7.25-.19a.88.88 0 0 1 .83.54c2.22 5.28 19.69 46.85 21.94 52.21a.88.88 0 0 1 -.23 1l-2.2 2 21.22-54.89a.88.88 0 0 1 .82-.56h5.34c3.13 0 6.21 0 9.23-.11q3.85-.07 6.6-.17a.88.88 0 0 1 .92.88z" fill="#fff"/><path d="m95 1.78a.88.88 0 0 1 .92-.88q2.49.09 6.28.18c3 .07 6 .1 9 .1 3.42 0 6.72 0 9.92-.1s5.49-.08 6.88-.08q14.82 0 22.19 4.79a15.25 15.25 0 0 1 7.36 13.52 18.74 18.74 0 0 1 -1.5 7.2 18.12 18.12 0 0 1 -5.05 6.71 26.33 26.33 0 0 1 -9.76 4.94 55.55 55.55 0 0 1 -15.63 1.84h-9.77a.83.83 0 0 1 -.84-.84v-.32a.83.83 0 0 1 .84-.84h8.75q6.28 0 9.54-2.37a11.91 11.91 0 0 0 4.48-6.31 29.43 29.43 0 0 0 1.23-8.78q0-8.31-3-12.89t-10.23-4.57c-2.77 0-4.57.59-5.38 1.78s-1.23 3.62-1.23 7.26v52.18a20.55 20.55 0 0 0 .59 5.68 3.66 3.66 0 0 0 2.29 2.52 17.06 17.06 0 0 0 4.29.79.88.88 0 0 1 .83.87v.69a.89.89 0 0 1 -.94.89q-2.62-.17-6.32-.21-4.38 0-8.87 0c-3.41 0-6.64 0-9.66 0q-3.78 0-6.27.2a.88.88 0 0 1 -.94-.89v-.78a.89.89 0 0 1 .83-.88 16.86 16.86 0 0 0 4.29-.78 3.66 3.66 0 0 0 2.29-2.52 20.6 20.6 0 0 0 .59-5.68v-52.2a20.5 20.5 0 0 0 -.59-5.74 3.82 3.82 0 0 0 -2.34-2.52 14.77 14.77 0 0 0 -4.22-.74.9.9 0 0 1 -.85-.87zm20.24 37.44a.88.88 0 0 1 .9-1q3.89.12 6.82.39l5.83.58c1.69.18 3.2.3 4.53.37q9.57.84 14.15 4.1a15.31 15.31 0 0 1 5.94 9.78l2.42 10.84a20.51 20.51 0 0 0 2 5.89 3.39 3.39 0 0 0 3 1.68 4.75 4.75 0 0 0 2.26-.68 8.47 8.47 0 0 0 1.4-1.16.87.87 0 0 1 1.18 0l.15.12a.88.88 0 0 1 .08 1.27 16.87 16.87 0 0 1 -5.49 4 19.69 19.69 0 0 1 -7.89 1.42 16.73 16.73 0 0 1 -9.36-2.42q-3.69-2.41-4.84-8.94l-1.9-10.52a56.07 56.07 0 0 0 -1.78-7.73 13.47 13.47 0 0 0 -2.9-5.26 6.67 6.67 0 0 0 -5.1-2h-10.53a.88.88 0 0 1 -.87-.78z" fill="#fff"/><path d="m177.29 1.19-27.81 75.24a.87.87 0 0 1 -.82.57h-1.58a.88.88 0 0 1 -.82-1.19l27.8-75.24a.89.89 0 0 1 .83-.57h1.57a.88.88 0 0 1 .83 1.19z"/><path d="m199 12.53v9l2.62-7.09-.93-2.2a.88.88 0 0 0 -1.69.29z"/><path d="m176.59 77h1.6a.86.86 0 0 0 .82-.58l18-48.66v-9.4l-21.24 57.45a.88.88 0 0 0 .82 1.19z"/><g fill="#fff"><path d="m198.28 1.51c-1.64 0-3.31 0-5-.1l-3.34-.16a.88.88 0 0 0 -.93.89v.33a.91.91 0 0 0 .85.9 14.06 14.06 0 0 1 4.22.76 3.82 3.82 0 0 1 2.34 2.56 21 21 0 0 1 .58 5.81v6.25l6.38-17.27q-2.52.03-5.1.03z"/><path d="m197 59.7a43.14 43.14 0 0 1 -.59 8 6.66 6.66 0 0 1 -2.29 4.3 10.55 10.55 0 0 1 -4.38 1.68.91.91 0 0 0 -.74.88v.3a.84.84 0 0 0 .92.85c.91-.08 2-.13 3.18-.16h4.82 6c1.66 0 3.06.09 4.22.18a.85.85 0 0 0 .91-.86v-.53a.87.87 0 0 0 -.76-.86 15.53 15.53 0 0 1 -5.89-1.71 6.19 6.19 0 0 1 -2.73-4.33 46.73 46.73 0 0 1 -.67-8.74v-37.22l-2 6.52z"/><path d="m236.48 55.06a.88.88 0 0 0 .22-1l-.65-1.58-1.75 4.57z"/><path d="m255 8v1.92l.74-1.92z"/><path d="m271.59 7.08a3.79 3.79 0 0 1 2.29-2.51 13.86 13.86 0 0 1 4.27-.75.9.9 0 0 0 .85-.88v-.35a.88.88 0 0 0 -.92-.87q-2.74.09-6.6.18-4.53.1-9.23.1h-7a.88.88 0 0 0 -.82.56l-19.43 50.13.65 1.56a.87.87 0 0 1 -.22 1l-2.2 2 1.77-4.56-21.26-50.45a.88.88 0 0 0 -.83-.54c-2.13.07-4.55.13-7.24.2h-.37l-4.82 12.82 25.92 60.74a.88.88 0 0 0 .82.54h.36a.93.93 0 0 0 .87-.56l26.55-65.52v-1.92h.78l-.78 1.92v54.85a17.93 17.93 0 0 1 -.67 5.67 3.88 3.88 0 0 1 -2.61 2.56 21.51 21.51 0 0 1 -4.85.78.91.91 0 0 0 -.87.88v.23a.87.87 0 0 0 .92.88c1.68-.11 3.74-.17 6.2-.2h9.43 9.06q3.78 0 6.47.2a.87.87 0 0 0 .92-.87v-.25a.88.88 0 0 0 -.83-.87 16.68 16.68 0 0 1 -4.29-.78 3.66 3.66 0 0 1 -2.29-2.51 20.47 20.47 0 0 1 -.59-5.67v-52a20.39 20.39 0 0 1 .59-5.74z"/><path d="m203.26 1.59-6.26 17v9.41l2-6.54v-9c.38-1 1.7-1.23 2.07-.34l.93 2.2 4.75-12.86c-1.16.1-2.32.12-3.49.13z"/></g><path d="m350.33 61.06a9.41 9.41 0 0 1 6.52 2.16 7.54 7.54 0 0 1 2.42 6 7.53 7.53 0 0 1 -2.42 5.94 11 11 0 0 1 -13 0 7.57 7.57 0 0 1 -2.42-5.94 7.57 7.57 0 0 1 2.42-6 9.43 9.43 0 0 1 6.48-2.16z"/><path d="m317 .79q21 0 31.25 9.55t10.2 27.36a40 40 0 0 1 -5 20.32 33.9 33.9 0 0 1 -14.56 13.49q-9.54 4.8-22.88 4.8c-1.71 0-4.14 0-7.31-.16s-5.92-.16-8.26-.16q-4.69 0-9.23.06c-2.52 0-4.61.09-6.26.2a.89.89 0 0 1 -.94-.89v-.36a.89.89 0 0 1 .83-.89 17.24 17.24 0 0 0 4.29-.79 3.7 3.7 0 0 0 2.29-2.56 21.11 21.11 0 0 0 .58-5.76v-52.9a21 21 0 0 0 -.59-5.81 3.82 3.82 0 0 0 -2.34-2.56 14.06 14.06 0 0 0 -4.22-.73.91.91 0 0 1 -.85-.9v-.38a.89.89 0 0 1 .92-.89l6.28.23c3 .11 6 .12 9 .05l8.7-.21c3.24-.07 5.93-.11 8.1-.11zm-.18 2.42c-3.22 0-5.33.59-6.31 1.79s-1.51 3.61-1.51 7.25v52.6q0 5.48 1.53 7.26t6.36 1.79q8.83 0 13.94-4.16t7.31-12.15a74.06 74.06 0 0 0 2.21-19.46q0-17.67-5.47-26.3t-18.1-8.62z" fill="#fff"/></svg>